<svg width="24" height="24" viewBox="0 0 24 24" fill="none" xmlns="http://www.w3.org/2000/svg">
<path d="M12.0099 15.5996C12.7218 15.5996 13.4177 15.3885 14.0097 14.9929C14.6016 14.5974 15.0629 14.0352 15.3353 13.3775C15.6078 12.7198 15.679 11.9961 15.5401 11.2978C15.4013 10.5996 15.0584 9.95826 14.555 9.45486C14.0517 8.95147 13.4103 8.60865 12.7121 8.46976C12.0138 8.33087 11.2901 8.40215 10.6324 8.67457C9.97467 8.947 9.41251 9.40834 9.01698 10.0003C8.62145 10.5922 8.41033 11.2881 8.41031 12C8.4103 12.4727 8.5034 12.9408 8.68429 13.3775C8.86518 13.8142 9.13033 14.2111 9.46458 14.5453C9.79884 14.8796 10.1957 15.1447 10.6324 15.3256C11.0691 15.5065 11.5372 15.5996 12.0099 15.5996V15.5996ZM12.0099 0.00149555C10.7889 0.00127674 9.57511 0.18742 8.41031 0.553496V7.2006C9.49146 6.38974 10.8147 5.96768 12.1657 6.0028C13.5167 6.03791 14.8162 6.52815 15.8538 7.39408C16.8914 8.26001 17.6062 9.4509 17.8824 10.7738C18.1586 12.0967 17.98 13.4741 17.3757 14.6829C16.7713 15.8917 15.7765 16.8609 14.5524 17.4337C13.3284 18.0065 11.9468 18.1492 10.6315 17.8387C9.31621 17.5282 8.14429 16.7827 7.30561 15.723C6.46693 14.6633 6.01062 13.3514 6.01061 12V1.6033C3.48824 3.0564 1.58015 5.37695 0.641867 8.13258C-0.296419 10.8882 -0.200907 13.891 0.910606 16.5814C2.02212 19.2718 4.07382 21.4664 6.68345 22.7563C9.29307 24.0462 12.2826 24.3433 15.0951 23.5924C17.9076 22.8415 20.3511 21.0937 21.9705 18.6748C23.5899 16.2558 24.2747 13.3306 23.8972 10.4441C23.5197 7.55773 22.1058 4.90697 19.9188 2.98576C17.7318 1.06455 14.921 0.00392562 12.01 0.00149555H12.0099Z" fill="white"/>
</svg>
