<svg width="478" height="144" viewBox="0 0 478 144" fill="none" xmlns="http://www.w3.org/2000/svg">
<path d="M295.917 112.497C268.226 132.908 228.088 143.799 193.53 143.799C145.074 143.799 101.452 125.877 68.4495 96.0688C65.8566 93.7249 68.1798 90.5305 71.2912 92.3558C106.907 113.078 150.944 125.545 196.434 125.545C227.113 125.545 260.862 119.197 291.893 106.025C296.581 104.034 300.502 109.095 295.917 112.497Z" fill="white"/>
<path d="M307.43 99.3254C303.904 94.8034 284.032 97.1889 275.112 98.2468C272.395 98.5787 271.98 96.214 274.428 94.513C290.255 83.3741 316.225 86.5892 319.253 90.323C322.282 94.0774 318.465 120.11 303.593 132.535C301.311 134.443 299.133 133.427 300.149 130.896C303.489 122.558 310.977 103.868 307.43 99.3254" fill="white"/>
<path d="M275.734 15.8764V5.04853C275.734 3.40984 276.979 2.31046 278.472 2.31046H326.949C328.505 2.31046 329.749 3.43059 329.749 5.04853V14.3206C329.728 15.8764 328.422 17.9092 326.098 21.1243L300.979 56.9889C310.313 56.7608 320.166 58.1505 328.629 62.9214C330.537 64 331.056 65.5765 331.201 67.1322V78.6861C331.201 80.2625 329.459 82.1087 327.633 81.1545C312.719 73.3344 292.91 72.4839 276.419 81.2375C274.739 82.1502 272.975 80.3248 272.975 78.7483V67.7753C272.975 66.0121 272.996 63.0044 274.759 60.3285L303.862 18.5937H278.535C276.979 18.5937 275.734 17.4943 275.734 15.8764" fill="white"/>
<path d="M98.9002 83.4362H84.1519C82.7414 83.3325 81.6213 82.2746 81.5176 80.9263V5.23523C81.5176 3.721 82.7829 2.51789 84.3594 2.51789H98.112C99.5433 2.58008 100.684 3.6795 100.788 5.04853V14.9429H101.057C104.646 5.38042 111.387 0.920681 120.473 0.920681C129.704 0.920681 135.47 5.38042 139.619 14.9429C143.187 5.38042 151.297 0.920681 159.988 0.920681C166.17 0.920681 172.932 3.47207 177.06 9.19713C181.727 15.5652 180.773 24.8166 180.773 32.9271L180.752 80.6982C180.752 82.2124 179.487 83.4362 177.91 83.4362H163.183C161.71 83.3325 160.528 82.1502 160.528 80.6982V40.5813C160.528 37.3868 160.818 29.4215 160.113 26.3931C159.013 21.311 155.715 19.8798 151.442 19.8798C147.874 19.8798 144.141 22.2652 142.626 26.0819C141.112 29.8986 141.257 36.2875 141.257 40.5813V80.6982C141.257 82.2124 139.992 83.4362 138.416 83.4362H123.688C122.195 83.3325 121.033 82.1502 121.033 80.6982L121.012 40.5813C121.012 32.1389 122.402 19.7138 111.927 19.7138C101.327 19.7138 101.742 31.8277 101.742 40.5813V80.6982C101.742 82.2124 100.477 83.4362 98.9002 83.4362Z" fill="white"/>
<path d="M371.484 0.920681C393.368 0.920681 405.212 19.7138 405.212 43.6098C405.212 66.6967 392.123 85.0128 371.484 85.0128C349.994 85.0128 338.295 66.2196 338.295 42.8008C338.295 19.2367 350.139 0.920681 371.484 0.920681M371.608 16.3742C360.739 16.3742 360.054 31.1847 360.054 40.4154C360.054 49.6667 359.909 69.4141 371.484 69.4141C382.913 69.4141 383.453 53.4835 383.453 43.7757C383.453 37.3869 383.183 29.7535 381.254 23.6965C379.594 18.4278 376.296 16.3742 371.608 16.3742" fill="white"/>
<path d="M433.589 83.4362H418.903C417.43 83.3325 416.248 82.1502 416.248 80.6982L416.227 4.9863C416.351 3.59652 417.575 2.51789 419.069 2.51789H432.738C434.025 2.58008 435.082 3.45133 435.373 4.63368V16.2083H435.642C439.77 5.85751 445.558 0.920681 455.742 0.920681C462.359 0.920681 468.811 3.30613 472.959 9.84016C476.817 15.8971 476.817 26.0819 476.817 33.4042V81.0508C476.651 82.3784 475.428 83.4362 473.976 83.4362H459.186C457.837 83.3325 456.717 82.3369 456.572 81.0508V39.9382C456.572 31.6618 457.526 19.5479 447.342 19.5479C443.753 19.5479 440.455 21.9541 438.816 25.6048C436.742 30.2305 436.472 34.8355 436.472 39.9382V80.6982C436.451 82.2124 435.165 83.4362 433.589 83.4362" fill="white"/>
<path d="M237.09 47.2813V44.0869C226.428 44.0869 215.165 46.3686 215.165 58.9389C215.165 65.307 218.463 69.6216 224.126 69.6216C228.275 69.6216 231.988 67.0702 234.332 62.9216C237.236 57.8188 237.09 53.0271 237.09 47.2813M251.963 83.229C250.988 84.1002 249.578 84.1624 248.478 83.5816C243.583 79.516 242.712 77.6284 240.015 73.7494C231.925 82.0051 226.2 84.4735 215.704 84.4735C203.3 84.4735 193.634 76.8194 193.634 61.4903C193.634 49.5216 200.126 41.3696 209.357 37.3869C217.364 33.8606 228.544 33.2383 237.09 32.2634V30.355C237.09 26.8494 237.36 22.7008 235.306 19.6724C233.502 16.955 230.058 15.8349 227.03 15.8349C221.409 15.8349 216.389 18.7182 215.165 24.6922C214.916 26.0197 213.941 27.3265 212.614 27.3888L198.301 25.8538C197.098 25.5841 195.77 24.6092 196.102 22.7631C199.4 5.42193 215.061 0.194677 229.084 0.194677C236.261 0.194677 245.636 2.10303 251.299 7.5377C258.476 14.2377 257.792 23.1779 257.792 32.9064V55.8897C257.792 62.7971 260.654 65.8256 263.351 69.5593C264.305 70.8869 264.513 72.4841 263.31 73.4798C260.302 75.9897 254.95 80.6568 252.005 83.2705L251.963 83.2289" fill="white"/>
<path d="M43.7446 47.2813V44.0869C33.0827 44.0869 21.8192 46.3686 21.8192 58.9389C21.8192 65.307 25.1174 69.6216 30.7802 69.6216C34.9288 69.6216 38.6418 67.0702 40.9858 62.9216C43.8898 57.8188 43.7446 53.0271 43.7446 47.2813M58.6174 83.229C57.6425 84.1002 56.2319 84.1624 55.1325 83.5816C50.2372 79.516 49.366 77.6284 46.6694 73.7494C38.5796 82.0051 32.8545 84.4735 22.3586 84.4735C9.95422 84.4735 0.287979 76.8194 0.287979 61.4903C0.287979 49.5216 6.78055 41.3696 16.0112 37.3869C24.018 33.8606 35.1985 33.2383 43.7446 32.2634V30.355C43.7446 26.8494 44.0143 22.7008 41.9607 19.6724C40.1561 16.955 36.7127 15.8349 33.6843 15.8349C28.0629 15.8349 23.0431 18.7182 21.8192 24.6922C21.5703 26.0197 20.5954 27.3265 19.2679 27.3888L4.95516 25.8538C3.75206 25.5841 2.42451 24.6092 2.7564 22.7631C6.05454 5.42193 21.7155 0.194677 35.7378 0.194677C42.9149 0.194677 52.2908 2.10303 57.9536 7.5377C65.1307 14.2377 64.4462 23.1779 64.4462 32.9064V55.8897C64.4462 62.7971 67.3087 65.8256 70.0053 69.5593C70.9595 70.8869 71.1669 72.4841 69.9638 73.4798C66.9561 75.9897 61.6044 80.6568 58.6589 83.2705L58.6174 83.2289" fill="white"/>
</svg>
