<svg width="24" height="24" viewBox="0 0 24 24" fill="none" xmlns="http://www.w3.org/2000/svg">
<g clip-path="url(#clip0_1_12)">
<path d="M0.045 18.02C0.117 17.904 0.232 17.896 0.393 17.998C4.029 20.108 7.987 21.164 12.263 21.164C15.115 21.164 17.931 20.631 20.71 19.569L21.025 19.429C21.163 19.369 21.259 19.329 21.318 19.299C21.544 19.211 21.708 19.253 21.843 19.429C21.963 19.603 21.933 19.765 21.723 19.909C21.467 20.099 21.123 20.319 20.717 20.563C19.473 21.306 18.077 21.879 16.532 22.289C12.9132 23.2666 9.07699 23.0645 5.581 21.712C3.58479 20.9299 1.74552 19.7952 0.151 18.362C0.051 18.288 0 18.212 0 18.142C0 18.095 0.021 18.052 0.051 18.012L0.045 18.02ZM6.61 11.802C6.61 10.797 6.857 9.939 7.353 9.225C7.848 8.515 8.523 7.975 9.393 7.61C10.189 7.275 11.149 7.035 12.305 6.89C12.695 6.844 13.338 6.787 14.225 6.716V6.346C14.225 5.416 14.12 4.788 13.925 4.471C13.623 4.041 13.145 3.821 12.485 3.821H12.303C11.823 3.867 11.407 4.017 11.057 4.281C10.707 4.551 10.482 4.911 10.382 5.377C10.322 5.677 10.176 5.842 9.947 5.887L7.427 5.572C7.179 5.512 7.055 5.392 7.055 5.182C7.055 5.136 7.062 5.092 7.077 5.032C7.324 3.742 7.932 2.782 8.897 2.152C9.873 1.536 10.997 1.177 12.287 1.102H12.827C14.477 1.102 15.784 1.536 16.715 2.392C16.85 2.542 16.985 2.692 17.12 2.872C17.24 3.037 17.344 3.186 17.403 3.322C17.478 3.456 17.553 3.652 17.598 3.892C17.658 4.146 17.703 4.312 17.733 4.402C17.763 4.506 17.795 4.702 17.809 5.017C17.819 5.33 17.829 5.51 17.829 5.57V10.85C17.829 11.226 17.889 11.57 17.994 11.886C18.099 12.199 18.204 12.426 18.309 12.56L18.819 13.234C18.909 13.37 18.955 13.49 18.955 13.594C18.955 13.714 18.895 13.82 18.775 13.908C17.575 14.958 16.915 15.528 16.812 15.618C16.647 15.753 16.437 15.768 16.182 15.663C15.997 15.5083 15.8213 15.3426 15.656 15.167L15.346 14.82C15.2364 14.683 15.1307 14.5429 15.029 14.4L14.729 13.965C13.919 14.851 13.126 15.405 12.329 15.63C11.835 15.78 11.236 15.857 10.499 15.857C9.389 15.857 8.459 15.514 7.739 14.823C7.019 14.133 6.659 13.158 6.659 11.883L6.609 11.807L6.61 11.802ZM10.363 11.364C10.363 11.93 10.503 12.384 10.788 12.728C11.073 13.068 11.463 13.24 11.943 13.24C11.988 13.24 12.049 13.233 12.138 13.22C12.228 13.204 12.272 13.197 12.304 13.197C12.918 13.037 13.384 12.644 13.728 12.019C13.893 11.739 14.013 11.439 14.088 11.109C14.178 10.789 14.208 10.519 14.223 10.309C14.238 10.114 14.238 9.769 14.238 9.304V8.764C13.398 8.764 12.754 8.824 12.318 8.944C11.043 9.304 10.398 10.114 10.398 11.374L10.363 11.354V11.364ZM19.525 18.391C19.555 18.331 19.6 18.281 19.657 18.221C20.019 17.978 20.371 17.811 20.707 17.721C21.2349 17.587 21.775 17.5066 22.319 17.481C22.459 17.469 22.599 17.481 22.729 17.511C23.379 17.571 23.779 17.679 23.901 17.841C23.964 17.931 24 18.069 24 18.231V18.381C24 18.891 23.851 19.491 23.576 20.181C23.298 20.871 22.912 21.429 22.42 21.861C22.347 21.921 22.28 21.951 22.223 21.951C22.193 21.951 22.163 21.951 22.133 21.939C22.043 21.895 22.026 21.819 22.069 21.699C22.609 20.439 22.875 19.556 22.875 19.059C22.875 18.909 22.845 18.789 22.788 18.715C22.643 18.549 22.238 18.458 21.564 18.458C21.321 18.458 21.031 18.474 20.694 18.504C20.331 18.549 19.994 18.594 19.694 18.639C19.604 18.639 19.546 18.625 19.514 18.595C19.484 18.565 19.478 18.548 19.494 18.518C19.494 18.501 19.5 18.488 19.514 18.455V18.395L19.525 18.391Z" fill="white"/>
</g>
<defs>
<clipPath id="clip0_1_12">
<rect width="24" height="24" fill="white"/>
</clipPath>
</defs>
</svg>
