<svg width="433" height="148" viewBox="0 0 433 148" fill="none" xmlns="http://www.w3.org/2000/svg">
<g clip-path="url(#clip0_3_6)">
<path d="M100.636 78.6415C100.458 59.9139 115.936 50.916 116.633 50.4876C107.92 37.7585 94.3879 36.0089 89.5677 35.8125C78.0526 34.6343 67.0909 42.5966 61.2352 42.5966C55.3795 42.5966 46.3638 35.9732 36.8125 36.1696C24.2441 36.3481 12.6577 43.4714 6.17708 54.7187C-6.85549 77.3204 2.85645 110.884 15.5855 129.254C21.8162 138.234 29.2072 148.357 38.9549 147.982C48.3455 147.607 51.8803 141.912 63.199 141.912C74.5177 141.912 77.7134 147.982 87.6217 147.803C97.7085 147.607 104.1 138.627 110.277 129.611C117.382 119.167 120.328 109.081 120.507 108.545C120.275 108.456 100.851 101.011 100.636 78.6415Z" fill="white"/>
<path d="M82.016 23.637C87.1934 17.3707 90.6747 8.67643 89.7285 0C82.2838 0.303496 73.2681 4.96306 67.9301 11.2294C63.1455 16.7637 58.9501 25.6187 60.0927 34.1166C68.3586 34.7593 76.8565 29.8855 82.016 23.637ZM165.925 97.0474L157.355 123.023H146.34L174.387 40.4721H187.241L215.395 123.023H204.005L195.186 97.0474H165.925ZM192.99 88.7102L184.92 64.9482C183.081 59.5567 181.867 54.6651 180.635 49.8805H180.403C179.171 54.7722 177.833 59.7888 176.244 64.8233L168.174 88.6924L192.99 88.7102ZM223.75 83.0866C223.75 75.4992 223.518 69.3579 223.25 63.7342H232.927L233.426 73.9103H233.659C238.068 66.68 245.049 62.3953 254.725 62.3953C269.061 62.3953 279.826 74.5173 279.826 92.5307C279.826 113.847 266.847 124.362 252.886 124.362C245.049 124.362 238.193 120.934 234.64 115.061H234.408V147.267H223.75V83.0866V83.0866ZM234.39 98.8863C234.39 100.493 234.623 101.939 234.89 103.296C236.854 110.758 243.335 115.918 251.065 115.918C262.455 115.918 269.079 106.617 269.079 93.0127C269.079 81.1228 262.83 70.9825 251.44 70.9825C244.102 70.9825 237.247 76.249 235.14 84.3363C234.765 85.6753 234.408 87.282 234.408 88.7459L234.39 98.8863ZM290.966 83.0866C290.966 75.4992 290.734 69.3579 290.466 63.7342H300.143L300.643 73.9103H300.875C305.284 66.68 312.265 62.3953 321.941 62.3953C336.277 62.3953 347.042 74.5173 347.042 92.5307C347.042 113.847 334.063 124.362 320.102 124.362C312.265 124.362 305.409 120.934 301.857 115.061H301.624V147.267H290.966V83.0866V83.0866ZM301.624 98.8863C301.624 100.493 301.857 101.939 302.124 103.296C304.088 110.758 310.569 115.918 318.299 115.918C329.689 115.918 336.313 106.617 336.313 93.0127C336.313 81.1228 330.064 70.9825 318.674 70.9825C311.336 70.9825 304.481 76.249 302.374 84.3363C301.999 85.6753 301.642 87.282 301.642 88.7459L301.624 98.8863ZM358.2 36.0625H368.983V123.005H358.2V36.0625ZM390.657 95.3336C390.889 109.901 400.208 115.918 410.973 115.918C418.686 115.918 423.346 114.579 427.38 112.865L429.219 120.577C425.434 122.291 418.936 124.255 409.51 124.255C391.264 124.255 380.356 112.258 380.356 94.3695C380.356 76.4811 390.889 62.3953 408.153 62.3953C427.505 62.3953 432.647 79.4089 432.647 90.317C432.647 92.5307 432.415 94.2267 432.272 95.3336H390.657ZM422.256 87.6212C422.381 80.7658 419.436 70.1077 407.314 70.1077C396.406 70.1077 391.639 80.1588 390.782 87.6212H422.256V87.6212Z" fill="white"/>
</g>
<defs>
<clipPath id="clip0_3_6">
<rect width="432.663" height="148" fill="white"/>
</clipPath>
</defs>
</svg>
