<svg width="480" height="144" viewBox="0 0 480 144" fill="none" xmlns="http://www.w3.org/2000/svg">
<path d="M71.9966 0.237427C32.3546 0.237427 0.216858 32.3743 0.216858 72.0163C0.216858 111.66 32.3546 143.794 71.9966 143.794C111.643 143.794 143.777 111.66 143.777 72.0163C143.777 32.3769 111.643 0.240855 71.9957 0.240855L71.9966 0.237427V0.237427ZM104.914 103.763C103.629 105.872 100.869 106.54 98.76 105.246C81.9068 94.9518 60.6908 92.6204 35.7051 98.3289C33.2974 98.8775 30.8974 97.3689 30.3489 94.9604C29.7977 92.5518 31.3003 90.1518 33.714 89.6032C61.0568 83.3564 84.5108 86.0461 103.431 97.6089C105.54 98.9032 106.209 101.655 104.914 103.763V103.763ZM113.7 84.2186C112.08 86.8518 108.634 87.6832 106.003 86.0632C86.7086 74.2038 57.2974 70.7692 34.476 77.6966C31.5163 78.5906 28.3903 76.9226 27.492 73.9681C26.6006 71.0083 28.2694 67.8883 31.224 66.9883C57.2923 59.0786 89.7 62.91 111.857 76.5258C114.489 78.1458 115.32 81.5915 113.7 84.2195V84.2186ZM114.454 63.8666C91.32 50.1258 53.1514 48.8623 31.0637 55.566C27.5169 56.6418 23.766 54.6395 22.6911 51.0926C21.6163 47.544 23.6169 43.7958 27.1663 42.7175C52.5214 35.0203 94.6714 36.5075 121.306 52.3192C124.503 54.2126 125.549 58.3329 123.655 61.5189C121.769 64.7092 117.638 65.7609 114.458 63.8666H114.454ZM195.506 66.4998C183.111 63.5443 180.909 61.47 180.909 57.1115C180.909 52.9938 184.783 50.2226 190.551 50.2226C196.14 50.2226 201.677 52.3269 207.489 56.6589C207.66 56.79 207.883 56.8423 208.097 56.808C208.32 56.7755 208.509 56.6563 208.637 56.4772L214.689 47.9469C214.937 47.5955 214.869 47.1112 214.534 46.8429C207.617 41.2946 199.834 38.5972 190.731 38.5972C177.351 38.5972 168 46.6278 168 58.1178C168 70.4392 176.066 74.8021 190.003 78.1698C201.857 80.9015 203.863 83.1901 203.863 87.2804C203.863 91.8146 199.817 94.6346 193.303 94.6346C186.069 94.6346 180.163 92.1918 173.563 86.4832C173.4 86.3375 173.177 86.2775 172.971 86.2861C172.749 86.3032 172.551 86.4061 172.414 86.5689L165.626 94.6432C165.343 94.9861 165.377 95.4832 165.703 95.7746C173.383 102.632 182.829 106.249 193.029 106.249C207.446 106.249 216.763 98.3718 216.763 86.1746C216.789 75.8829 210.626 70.1829 195.531 66.5109L195.506 66.4998V66.4998ZM249.386 54.2769C243.137 54.2769 238.011 56.7386 233.777 61.7829V56.1052C233.777 55.6569 233.417 55.2918 232.971 55.2918H221.871C221.426 55.2918 221.066 55.6569 221.066 56.1052V119.192C221.066 119.638 221.426 120.006 221.871 120.006H232.971C233.417 120.006 233.777 119.638 233.777 119.192V99.2804C238.011 104.02 243.137 106.343 249.386 106.343C261 106.343 272.76 97.4032 272.76 80.3126C272.777 63.2186 261.017 54.276 249.394 54.276L249.386 54.2769ZM259.851 80.3126C259.851 89.0118 254.494 95.0889 246.814 95.0889C239.229 95.0889 233.503 88.7375 233.503 80.3126C233.503 71.8869 239.229 65.5372 246.814 65.5372C254.366 65.5363 259.851 71.7489 259.851 80.3118V80.3126ZM302.889 54.2769C287.931 54.2769 276.214 65.7935 276.214 80.4986C276.214 95.0461 287.854 106.438 302.709 106.438C317.717 106.438 329.469 94.9604 329.469 80.3126C329.469 65.7146 317.794 54.2786 302.889 54.2786V54.2769V54.2769ZM302.889 95.1747C294.934 95.1747 288.934 88.7804 288.934 80.3084C288.934 71.7978 294.729 65.6221 302.709 65.6221C310.714 65.6221 316.749 72.0138 316.749 80.4944C316.749 89.0032 310.92 95.1747 302.889 95.1747V95.1747ZM361.406 55.2918H349.191V42.8066C349.191 42.3592 348.831 41.994 348.386 41.994H337.286C336.84 41.994 336.471 42.3592 336.471 42.8066V55.2918H331.14C330.694 55.2918 330.334 55.6569 330.334 56.1052V65.6426C330.334 66.0901 330.694 66.4561 331.14 66.4561H336.471V91.1375C336.471 101.106 341.434 106.163 351.231 106.163C355.209 106.163 358.509 105.34 361.62 103.575C361.877 103.438 362.031 103.163 362.031 102.872V93.7861C362.031 93.5118 361.886 93.2461 361.646 93.1004C361.406 92.9461 361.106 92.9375 360.857 93.0661C358.723 94.1375 356.657 94.6346 354.343 94.6346C350.786 94.6346 349.191 93.0146 349.191 89.3975V66.4603H361.406C361.851 66.4603 362.211 66.0952 362.211 65.6469V56.1103C362.228 55.662 361.869 55.2969 361.414 55.2969L361.406 55.2918V55.2918ZM403.954 55.3406V53.8072C403.954 49.296 405.686 47.2843 409.56 47.2843C411.874 47.2843 413.734 47.7438 415.817 48.438C416.074 48.5186 416.34 48.4783 416.546 48.3249C416.76 48.1715 416.88 47.9255 416.88 47.6649V38.3135C416.88 37.956 416.657 37.6397 416.306 37.5343C414.111 36.8803 411.3 36.2092 407.083 36.2092C396.84 36.2092 391.414 41.9812 391.414 52.8952V55.2438H386.083C385.637 55.2438 385.269 55.6089 385.269 56.0563V65.6426C385.269 66.0901 385.637 66.4561 386.083 66.4561H391.414V104.518C391.414 104.972 391.783 105.332 392.229 105.332H403.32C403.774 105.332 404.134 104.972 404.134 104.518V66.4586H414.497L430.371 104.518C428.571 108.512 426.797 109.309 424.38 109.309C422.426 109.309 420.36 108.726 418.26 107.569C418.063 107.466 417.823 107.449 417.617 107.509C417.403 107.586 417.223 107.74 417.137 107.946L413.374 116.2C413.194 116.595 413.348 117.049 413.726 117.255C417.651 119.38 421.191 120.289 425.571 120.289C433.766 120.289 438.3 116.466 442.286 106.198L461.537 56.4515C461.64 56.2012 461.606 55.9183 461.451 55.6963C461.306 55.476 461.057 55.3432 460.791 55.3432H449.237C448.886 55.3432 448.577 55.5635 448.466 55.8883L436.628 89.6889L423.668 55.866C423.548 55.5515 423.248 55.3432 422.914 55.3432H403.954V55.3406V55.3406ZM379.286 55.2918H368.186C367.74 55.2918 367.371 55.6569 367.371 56.1052V104.518C367.371 104.972 367.74 105.332 368.186 105.332H379.286C379.731 105.332 380.1 104.972 380.1 104.518V56.1086C380.1 55.6603 379.74 55.2952 379.286 55.2952V55.2918ZM373.8 33.2469C369.403 33.2469 365.837 36.8057 365.837 41.202C365.837 45.6009 369.403 49.164 373.8 49.164C378.197 49.164 381.754 45.6009 381.754 41.202C381.754 36.8066 378.189 33.2469 373.8 33.2469ZM471.017 70.8583C466.629 70.8583 463.208 67.3312 463.208 63.0481C463.208 58.7649 466.671 55.1975 471.06 55.1975C475.448 55.1975 478.868 58.7238 478.868 63.0035C478.868 67.2866 475.406 70.8583 471.017 70.8583ZM471.06 55.974C467.057 55.974 464.031 59.154 464.031 63.0481C464.031 66.9403 467.04 70.0775 471.017 70.0775C475.02 70.0775 478.046 66.9001 478.046 63.0035C478.046 59.1112 475.037 55.974 471.06 55.974V55.974ZM472.791 63.8066L475.003 66.8992H473.134L471.146 64.0621H469.44V66.8992H467.88V58.7015H471.531C473.443 58.7015 474.694 59.6761 474.694 61.3166C474.703 62.6606 473.923 63.4818 472.8 63.8066H472.791ZM471.471 60.108H469.44V62.7009H471.471C472.483 62.7009 473.091 62.2046 473.091 61.4032C473.091 60.5598 472.483 60.108 471.471 60.108V60.108Z" fill="white"/>
</svg>
