<svg width="656" height="147" viewBox="0 0 656 147" fill="none" xmlns="http://www.w3.org/2000/svg">
<g clip-path="url(#clip0_3_49)">
<path fill-rule="evenodd" clip-rule="evenodd" d="M186.143 4.36995C195.14 6.77847 202.211 13.8492 204.619 22.8467C208.972 39.1385 208.989 73.1501 208.989 73.1501C208.989 73.1501 208.989 107.162 204.619 123.454C202.211 132.451 195.14 139.522 186.143 141.93C169.851 146.3 104.494 146.3 104.494 146.3C104.494 146.3 39.138 146.3 22.8461 141.93C13.8487 139.522 6.77798 132.451 4.36948 123.454C-0.000244141 107.162 -0.000244141 73.1501 -0.000244141 73.1501C-0.000244141 73.1501 -0.000244141 39.1385 4.36948 22.8467C6.77798 13.8492 13.8487 6.77847 22.8461 4.36995C39.138 0.000228882 104.494 0.000228882 104.494 0.000228882C104.494 0.000228882 169.851 0.000228882 186.143 4.36995ZM137.87 73.153L83.5755 104.498V41.8078L137.87 73.153Z" fill="white"/>
<path d="M253.115 95.1214L229.65 10.3763H250.122L258.346 48.792C260.444 58.254 261.975 66.3225 262.973 72.9975H263.575C264.263 68.2148 265.812 60.198 268.203 48.9296L276.719 10.3763H297.191L273.433 95.1214V135.774H253.099V95.1214H253.115Z" fill="white"/>
<path d="M303.349 133.087C299.221 130.3 296.279 125.964 294.524 120.081C292.787 114.197 291.91 106.387 291.91 96.6151V83.3165C291.91 73.4588 292.907 65.5283 294.903 59.5586C296.898 53.589 300.012 49.2192 304.244 46.4838C308.477 43.7485 314.033 42.3722 320.915 42.3722C327.693 42.3722 333.112 43.7657 337.206 46.5527C341.283 49.3396 344.277 53.7094 346.169 59.6274C348.061 65.5626 349.008 73.4588 349.008 83.3165V96.6151C349.008 106.387 348.079 114.232 346.239 120.15C344.397 126.085 341.404 130.421 337.275 133.156C333.146 135.891 327.538 137.267 320.467 137.267C313.173 137.284 307.479 135.874 303.349 133.087ZM326.506 118.739C327.641 115.746 328.226 110.877 328.226 104.099V75.5582C328.226 68.9862 327.659 64.1691 326.506 61.1413C325.353 58.0963 323.341 56.5824 320.45 56.5824C317.663 56.5824 315.685 58.0963 314.549 61.1413C313.397 64.1864 312.829 68.9862 312.829 75.5582V104.099C312.829 110.877 313.379 115.763 314.481 118.739C315.582 121.733 317.56 123.229 320.45 123.229C323.341 123.229 325.353 121.733 326.506 118.739Z" fill="white"/>
<path d="M415.603 135.791H399.466L397.677 124.574H397.23C392.842 133.039 386.271 137.27 377.497 137.27C371.424 137.27 366.934 135.275 364.044 131.301C361.154 127.31 359.709 121.082 359.709 112.618V44.1646H380.336V111.413C380.336 115.508 380.783 118.415 381.678 120.153C382.572 121.891 384.069 122.768 386.168 122.768C387.957 122.768 389.677 122.218 391.329 121.117C392.981 120.015 394.185 118.622 394.993 116.936V44.1474H415.603V135.791Z" fill="white"/>
<path d="M471.636 26.9749H451.164V135.788H430.984V26.9749H410.512V10.3906H471.636V26.9749Z" fill="white"/>
<path d="M521.387 135.791H505.251L503.461 124.574H503.014C498.628 133.039 492.056 137.27 483.282 137.27C477.209 137.27 472.719 135.275 469.829 131.301C466.938 127.31 465.493 121.082 465.493 112.618V44.1646H486.12V111.413C486.12 115.508 486.567 118.415 487.462 120.153C488.357 121.891 489.853 122.768 491.953 122.768C493.741 122.768 495.462 122.218 497.113 121.117C498.765 120.015 499.969 118.622 500.777 116.936V44.1474H521.387V135.791Z" fill="white"/>
<path d="M589.653 58.8033C588.397 53.0229 586.383 48.8424 583.597 46.2446C580.81 43.6469 576.974 42.3566 572.088 42.3566C568.303 42.3566 564.759 43.4232 561.473 45.5737C558.187 47.7242 555.641 50.5284 553.852 54.0207H553.697V5.74727H533.827V135.772H550.858L552.957 127.102H553.405C555.004 130.198 557.396 132.624 560.578 134.431C563.761 136.22 567.305 137.115 571.193 137.115C578.161 137.115 583.305 133.898 586.59 127.48C589.876 121.046 591.527 111.016 591.527 97.3569V82.8542C591.527 72.6178 590.891 64.5837 589.653 58.8033ZM570.746 96.1866C570.746 102.861 570.47 108.092 569.92 111.876C569.37 115.661 568.457 118.363 567.15 119.945C565.86 121.545 564.105 122.336 561.92 122.336C560.217 122.336 558.652 121.94 557.206 121.132C555.762 120.341 554.592 119.137 553.697 117.554V65.5471C554.385 63.0526 555.59 61.0226 557.293 59.4227C558.979 57.8227 560.837 57.0313 562.815 57.0313C564.914 57.0313 566.531 57.8571 567.667 59.4915C568.819 61.143 569.61 63.8956 570.058 67.7836C570.505 71.6716 570.729 77.1939 570.729 84.3677V96.1866H570.746Z" fill="white"/>
<path d="M620.79 101.468C620.79 107.351 620.962 111.756 621.307 114.698C621.651 117.639 622.373 119.773 623.474 121.132C624.575 122.474 626.261 123.144 628.549 123.144C631.629 123.144 633.762 121.94 634.897 119.549C636.05 117.158 636.67 113.167 636.773 107.593L654.561 108.642C654.664 109.433 654.716 110.534 654.716 111.928C654.716 120.392 652.393 126.723 647.766 130.903C643.138 135.084 636.583 137.183 628.119 137.183C617.952 137.183 610.83 134 606.752 127.618C602.658 121.235 600.628 111.378 600.628 98.0269V82.0276C600.628 68.2822 602.744 58.2352 606.976 51.9043C611.208 45.5734 618.451 42.4079 628.721 42.4079C635.792 42.4079 641.228 43.6982 645.013 46.2959C648.798 48.8936 651.464 52.9193 653.013 58.4073C654.561 63.8952 655.335 71.4648 655.335 81.133V96.8229H620.79V101.468ZM623.405 58.2869C622.356 59.5771 621.668 61.6932 621.307 64.635C620.962 67.5768 620.79 72.0325 620.79 78.0197V84.5915H635.878V78.0197C635.878 72.1358 635.672 67.6801 635.276 64.635C634.88 61.59 634.158 59.4567 633.108 58.2009C632.059 56.9622 630.442 56.3257 628.257 56.3257C626.055 56.3428 624.438 56.9966 623.405 58.2869Z" fill="white"/>
</g>
<defs>
<clipPath id="clip0_3_49">
<rect width="655.335" height="146.3" fill="white"/>
</clipPath>
</defs>
</svg>
