<svg width="404" height="135" viewBox="0 0 404 135" fill="none" xmlns="http://www.w3.org/2000/svg">
<rect width="404" height="135" rx="67.5" fill="#0A0A0B"/>
<path d="M49.681 67.32C52.243 67.866 54.301 69.147 55.855 71.163C57.409 73.137 58.186 75.405 58.186 77.967C58.186 81.663 56.884 84.603 54.28 86.787C51.718 88.929 48.127 90 43.507 90H22.906V45.774H42.814C47.308 45.774 50.815 46.803 53.335 48.861C55.897 50.919 57.178 53.712 57.178 57.24C57.178 59.844 56.485 62.007 55.099 63.729C53.755 65.451 51.949 66.648 49.681 67.32ZM33.679 63.666H40.735C42.499 63.666 43.843 63.288 44.767 62.532C45.733 61.734 46.216 60.579 46.216 59.067C46.216 57.555 45.733 56.4 44.767 55.602C43.843 54.804 42.499 54.405 40.735 54.405H33.679V63.666ZM41.617 81.306C43.423 81.306 44.809 80.907 45.775 80.109C46.783 79.269 47.287 78.072 47.287 76.518C47.287 74.964 46.762 73.746 45.712 72.864C44.704 71.982 43.297 71.541 41.491 71.541H33.679V81.306H41.617ZM97.5723 71.856C97.5723 72.864 97.5093 73.914 97.3833 75.006H73.0023C73.1703 77.19 73.8633 78.87 75.0813 80.046C76.3413 81.18 77.8743 81.747 79.6803 81.747C82.3683 81.747 84.2373 80.613 85.2873 78.345H96.7533C96.1653 80.655 95.0943 82.734 93.5403 84.582C92.0283 86.43 90.1173 87.879 87.8073 88.929C85.4973 89.979 82.9143 90.504 80.0583 90.504C76.6143 90.504 73.5483 89.769 70.8603 88.299C68.1723 86.829 66.0723 84.729 64.5603 81.999C63.0483 79.269 62.2923 76.077 62.2923 72.423C62.2923 68.769 63.0273 65.577 64.4973 62.847C66.0093 60.117 68.1093 58.017 70.7973 56.547C73.4853 55.077 76.5723 54.342 80.0583 54.342C83.4603 54.342 86.4843 55.056 89.1303 56.484C91.7763 57.912 93.8343 59.949 95.3043 62.595C96.8163 65.241 97.5723 68.328 97.5723 71.856ZM86.5473 69.021C86.5473 67.173 85.9173 65.703 84.6573 64.611C83.3973 63.519 81.8223 62.973 79.9323 62.973C78.1263 62.973 76.5933 63.498 75.3333 64.548C74.1153 65.598 73.3593 67.089 73.0653 69.021H86.5473ZM101.114 72.36C101.114 68.748 101.786 65.577 103.13 62.847C104.516 60.117 106.385 58.017 108.737 56.547C111.089 55.077 113.714 54.342 116.612 54.342C119.09 54.342 121.253 54.846 123.101 55.854C124.991 56.862 126.44 58.185 127.448 59.823V54.846H138.221V90H127.448V85.023C126.398 86.661 124.928 87.984 123.038 88.992C121.19 90 119.027 90.504 116.549 90.504C113.693 90.504 111.089 89.769 108.737 88.299C106.385 86.787 104.516 84.666 103.13 81.936C101.786 79.164 101.114 75.972 101.114 72.36ZM127.448 72.423C127.448 69.735 126.692 67.614 125.18 66.06C123.71 64.506 121.904 63.729 119.762 63.729C117.62 63.729 115.793 64.506 114.281 66.06C112.811 67.572 112.076 69.672 112.076 72.36C112.076 75.048 112.811 77.19 114.281 78.786C115.793 80.34 117.62 81.117 119.762 81.117C121.904 81.117 123.71 80.34 125.18 78.786C126.692 77.232 127.448 75.111 127.448 72.423ZM165.607 80.865V90H160.126C156.22 90 153.175 89.055 150.991 87.165C148.807 85.233 147.715 82.104 147.715 77.778V63.792H143.431V54.846H147.715V46.278H158.488V54.846H165.544V63.792H158.488V77.904C158.488 78.954 158.74 79.71 159.244 80.172C159.748 80.634 160.588 80.865 161.764 80.865H165.607ZM185.909 90.504C182.843 90.504 180.113 89.979 177.719 88.929C175.325 87.879 173.435 86.451 172.049 84.645C170.663 82.797 169.886 80.739 169.718 78.471H180.365C180.491 79.689 181.058 80.676 182.066 81.432C183.074 82.188 184.313 82.566 185.783 82.566C187.127 82.566 188.156 82.314 188.87 81.81C189.626 81.264 190.004 80.571 190.004 79.731C190.004 78.723 189.479 77.988 188.429 77.526C187.379 77.022 185.678 76.476 183.326 75.888C180.806 75.3 178.706 74.691 177.026 74.061C175.346 73.389 173.897 72.36 172.679 70.974C171.461 69.546 170.852 67.635 170.852 65.241C170.852 63.225 171.398 61.398 172.49 59.76C173.624 58.08 175.262 56.757 177.404 55.791C179.588 54.825 182.171 54.342 185.153 54.342C189.563 54.342 193.028 55.434 195.548 57.618C198.11 59.802 199.58 62.7 199.958 66.312H190.004C189.836 65.094 189.29 64.128 188.366 63.414C187.484 62.7 186.308 62.343 184.838 62.343C183.578 62.343 182.612 62.595 181.94 63.099C181.268 63.561 180.932 64.212 180.932 65.052C180.932 66.06 181.457 66.816 182.507 67.32C183.599 67.824 185.279 68.328 187.547 68.832C190.151 69.504 192.272 70.176 193.91 70.848C195.548 71.478 196.976 72.528 198.194 73.998C199.454 75.426 200.105 77.358 200.147 79.794C200.147 81.852 199.559 83.7 198.383 85.338C197.249 86.934 195.59 88.194 193.406 89.118C191.264 90.042 188.765 90.504 185.909 90.504ZM230.862 59.823C231.912 58.185 233.361 56.862 235.209 55.854C237.057 54.846 239.22 54.342 241.698 54.342C244.596 54.342 247.221 55.077 249.573 56.547C251.925 58.017 253.773 60.117 255.117 62.847C256.503 65.577 257.196 68.748 257.196 72.36C257.196 75.972 256.503 79.164 255.117 81.936C253.773 84.666 251.925 86.787 249.573 88.299C247.221 89.769 244.596 90.504 241.698 90.504C239.262 90.504 237.099 90 235.209 88.992C233.361 87.984 231.912 86.682 230.862 85.086V106.758H220.089V54.846H230.862V59.823ZM246.234 72.36C246.234 69.672 245.478 67.572 243.966 66.06C242.496 64.506 240.669 63.729 238.485 63.729C236.343 63.729 234.516 64.506 233.004 66.06C231.534 67.614 230.799 69.735 230.799 72.423C230.799 75.111 231.534 77.232 233.004 78.786C234.516 80.34 236.343 81.117 238.485 81.117C240.627 81.117 242.454 80.34 243.966 78.786C245.478 77.19 246.234 75.048 246.234 72.36ZM260.705 72.36C260.705 68.748 261.377 65.577 262.721 62.847C264.107 60.117 265.976 58.017 268.328 56.547C270.68 55.077 273.305 54.342 276.203 54.342C278.681 54.342 280.844 54.846 282.692 55.854C284.582 56.862 286.031 58.185 287.039 59.823V54.846H297.812V90H287.039V85.023C285.989 86.661 284.519 87.984 282.629 88.992C280.781 90 278.618 90.504 276.14 90.504C273.284 90.504 270.68 89.769 268.328 88.299C265.976 86.787 264.107 84.666 262.721 81.936C261.377 79.164 260.705 75.972 260.705 72.36ZM287.039 72.423C287.039 69.735 286.283 67.614 284.771 66.06C283.301 64.506 281.495 63.729 279.353 63.729C277.211 63.729 275.384 64.506 273.872 66.06C272.402 67.572 271.667 69.672 271.667 72.36C271.667 75.048 272.402 77.19 273.872 78.786C275.384 80.34 277.211 81.117 279.353 81.117C281.495 81.117 283.301 80.34 284.771 78.786C286.283 77.232 287.039 75.111 287.039 72.423ZM318.962 54.342C321.44 54.342 323.603 54.846 325.451 55.854C327.341 56.862 328.79 58.185 329.798 59.823V54.846H340.571V89.937C340.571 93.171 339.92 96.09 338.618 98.694C337.358 101.34 335.405 103.44 332.759 104.994C330.155 106.548 326.9 107.325 322.994 107.325C317.786 107.325 313.565 106.086 310.331 103.608C307.097 101.172 305.249 97.854 304.787 93.654H315.434C315.77 94.998 316.568 96.048 317.828 96.804C319.088 97.602 320.642 98.001 322.49 98.001C324.716 98.001 326.48 97.35 327.782 96.048C329.126 94.788 329.798 92.751 329.798 89.937V84.96C328.748 86.598 327.299 87.942 325.451 88.992C323.603 90 321.44 90.504 318.962 90.504C316.064 90.504 313.439 89.769 311.087 88.299C308.735 86.787 306.866 84.666 305.48 81.936C304.136 79.164 303.464 75.972 303.464 72.36C303.464 68.748 304.136 65.577 305.48 62.847C306.866 60.117 308.735 58.017 311.087 56.547C313.439 55.077 316.064 54.342 318.962 54.342ZM329.798 72.423C329.798 69.735 329.042 67.614 327.53 66.06C326.06 64.506 324.254 63.729 322.112 63.729C319.97 63.729 318.143 64.506 316.631 66.06C315.161 67.572 314.426 69.672 314.426 72.36C314.426 75.048 315.161 77.19 316.631 78.786C318.143 80.34 319.97 81.117 322.112 81.117C324.254 81.117 326.06 80.34 327.53 78.786C329.042 77.232 329.798 75.111 329.798 72.423ZM381.503 71.856C381.503 72.864 381.44 73.914 381.314 75.006H356.933C357.101 77.19 357.794 78.87 359.012 80.046C360.272 81.18 361.805 81.747 363.611 81.747C366.299 81.747 368.168 80.613 369.218 78.345H380.684C380.096 80.655 379.025 82.734 377.471 84.582C375.959 86.43 374.048 87.879 371.738 88.929C369.428 89.979 366.845 90.504 363.989 90.504C360.545 90.504 357.479 89.769 354.791 88.299C352.103 86.829 350.003 84.729 348.491 81.999C346.979 79.269 346.223 76.077 346.223 72.423C346.223 68.769 346.958 65.577 348.428 62.847C349.94 60.117 352.04 58.017 354.728 56.547C357.416 55.077 360.503 54.342 363.989 54.342C367.391 54.342 370.415 55.056 373.061 56.484C375.707 57.912 377.765 59.949 379.235 62.595C380.747 65.241 381.503 68.328 381.503 71.856ZM370.478 69.021C370.478 67.173 369.848 65.703 368.588 64.611C367.328 63.519 365.753 62.973 363.863 62.973C362.057 62.973 360.524 63.498 359.264 64.548C358.046 65.598 357.29 67.089 356.996 69.021H370.478Z" fill="url(#paint0_linear_4_5)"/>
<defs>
<linearGradient id="paint0_linear_4_5" x1="201.5" y1="20" x2="201.5" y2="115" gradientUnits="userSpaceOnUse">
<stop stop-color="#3B3E40"/>
<stop offset="1" stop-color="#141515" stop-opacity="0"/>
</linearGradient>
</defs>
</svg>
